<svg xmlns="http://www.w3.org/2000/svg" viewBox="0 0 480 480" width="480" height="480">
  <defs>
    <radialGradient id="bg1" cx="50%" cy="50%" r="70%">
      <stop offset="0%" stop-color="#FFF0F5"/>
      <stop offset="100%" stop-color="#FFB6C8"/>
    </radialGradient>
    <radialGradient id="b1" cx="50%" cy="40%" r="55%">
      <stop offset="0%" stop-color="#FF8FAB"/>
      <stop offset="100%" stop-color="#D63060"/>
    </radialGradient>
    <radialGradient id="b2" cx="50%" cy="40%" r="55%">
      <stop offset="0%" stop-color="#FFD580"/>
      <stop offset="100%" stop-color="#F5A623"/>
    </radialGradient>
    <radialGradient id="b3" cx="50%" cy="40%" r="55%">
      <stop offset="0%" stop-color="#A8D8EA"/>
      <stop offset="100%" stop-color="#3A86C8"/>
    </radialGradient>
    <radialGradient id="b4" cx="50%" cy="40%" r="55%">
      <stop offset="0%" stop-color="#C3A6FF"/>
      <stop offset="100%" stop-color="#7B4FD4"/>
    </radialGradient>
    <radialGradient id="b5" cx="50%" cy="40%" r="55%">
      <stop offset="0%" stop-color="#A8F0C6"/>
      <stop offset="100%" stop-color="#27AE60"/>
    </radialGradient>
  </defs>

  <!-- Background -->
  <rect width="480" height="480" fill="url(#bg1)" rx="16"/>

  <!-- Confetti dots -->
  <circle cx="40" cy="60" r="7" fill="#FF6B9D" opacity="0.7"/>
  <circle cx="80" cy="30" r="5" fill="#FFD166" opacity="0.8"/>
  <circle cx="130" cy="55" r="6" fill="#3A86FF" opacity="0.6"/>
  <circle cx="350" cy="40" r="8" fill="#A29BFE" opacity="0.7"/>
  <circle cx="410" cy="70" r="5" fill="#FF6B9D" opacity="0.8"/>
  <circle cx="450" cy="35" r="6" fill="#FFD166" opacity="0.7"/>
  <circle cx="60" cy="420" r="6" fill="#27AE60" opacity="0.6"/>
  <circle cx="420" cy="430" r="7" fill="#F5A623" opacity="0.7"/>
  <rect x="160" y="25" width="10" height="10" rx="2" fill="#FF6B9D" opacity="0.6" transform="rotate(20,165,30)"/>
  <rect x="300" y="45" width="8" height="8" rx="2" fill="#FFD166" opacity="0.7" transform="rotate(40,304,49)"/>
  <rect x="440" y="400" width="9" height="9" rx="2" fill="#3A86FF" opacity="0.6" transform="rotate(15,444,404)"/>
  <rect x="30" y="200" width="8" height="8" rx="2" fill="#A29BFE" opacity="0.5" transform="rotate(30,34,204)"/>

  <!-- Balloon 1 (left, red) -->
  <ellipse cx="145" cy="200" rx="48" ry="60" fill="url(#b1)"/>
  <path d="M145 260 Q143 275 145 285" stroke="#D63060" stroke-width="2" fill="none"/>
  <path d="M143 285 Q145 295 150 290 Q145 300 143 295 Q138 305 145 308" stroke="#D63060" stroke-width="1.5" fill="none"/>
  <!-- Balloon shine -->
  <ellipse cx="133" cy="183" rx="12" ry="16" fill="white" opacity="0.25"/>

  <!-- Balloon 2 (center, gold) -->
  <ellipse cx="240" cy="185" rx="52" ry="65" fill="url(#b2)"/>
  <path d="M240 250 Q238 268 240 280" stroke="#F5A623" stroke-width="2" fill="none"/>
  <path d="M238 280 Q240 292 246 286 Q240 298 238 292 Q232 302 240 306" stroke="#F5A623" stroke-width="1.5" fill="none"/>
  <ellipse cx="226" cy="166" rx="13" ry="18" fill="white" opacity="0.25"/>

  <!-- Balloon 3 (right, blue) -->
  <ellipse cx="335" cy="200" rx="48" ry="60" fill="url(#b3)"/>
  <path d="M335 260 Q333 275 335 285" stroke="#3A86C8" stroke-width="2" fill="none"/>
  <path d="M333 285 Q335 295 341 290 Q335 300 333 295 Q328 305 335 308" stroke="#3A86C8" stroke-width="1.5" fill="none"/>
  <ellipse cx="322" cy="183" rx="12" ry="16" fill="white" opacity="0.25"/>

  <!-- Small balloon top-left -->
  <ellipse cx="90" cy="155" rx="32" ry="40" fill="url(#b4)"/>
  <path d="M90 195 Q89 206 90 214" stroke="#7B4FD4" stroke-width="1.5" fill="none"/>
  <ellipse cx="82" cy="143" rx="8" ry="11" fill="white" opacity="0.22"/>

  <!-- Small balloon top-right -->
  <ellipse cx="390" cy="155" rx="32" ry="40" fill="url(#b5)"/>
  <path d="M390 195 Q389 206 390 214" stroke="#27AE60" stroke-width="1.5" fill="none"/>
  <ellipse cx="382" cy="143" rx="8" ry="11" fill="white" opacity="0.22"/>

  <!-- Stars -->
  <text x="55" y="350" font-size="22" fill="#FFD166" opacity="0.8">★</text>
  <text x="400" y="340" font-size="18" fill="#FF6B9D" opacity="0.7">★</text>
  <text x="210" y="95" font-size="16" fill="#A29BFE" opacity="0.8">★</text>
  <text x="270" y="88" font-size="20" fill="#FFD166" opacity="0.7">★</text>

  <!-- Text -->
  <text x="240" y="360" font-family="Georgia, serif" font-size="36" font-weight="bold" text-anchor="middle" fill="#C0245A" letter-spacing="1">Happy Birthday!</text>
  <text x="240" y="400" font-family="Georgia, serif" font-size="18" text-anchor="middle" fill="#D63060" opacity="0.8">🎉 Wishing you a wonderful day 🎉</text>
</svg>
